<?xml version="1.0" encoding="UTF-8"?>
<svg xmlns="http://www.w3.org/2000/svg" version="1.1" xmlns:xlink="http://www.w3.org/1999/xlink" viewBox="0 0 1024 1024">
  <!-- Generator: Adobe Illustrator 29.5.1, SVG Export Plug-In . SVG Version: 2.1.0 Build 141)  -->
  <defs>
    <style>
      .st0, .st1 {
        fill: #a64296;
      }

      .st0, .st2 {
        display: none;
      }

      .st3 {
        fill: url(#linear-gradient1);
        opacity: .65;
      }

      .st4 {
        fill: none;
      }

      .st5 {
        fill: url(#radial-gradient);
      }

      .st6 {
        fill: url(#radial-gradient5);
      }

      .st7 {
        fill: url(#radial-gradient1);
      }

      .st8 {
        mix-blend-mode: color-dodge;
        opacity: .18;
      }

      .st9 {
        isolation: isolate;
      }

      .st10 {
        fill: url(#radial-gradient7);
      }

      .st11 {
        fill: url(#radial-gradient8);
      }

      .st12 {
        fill: url(#radial-gradient6);
      }

      .st13 {
        fill: url(#radial-gradient2);
      }

      .st14 {
        fill: url(#radial-gradient4);
      }

      .st15 {
        fill: url(#radial-gradient3);
      }

      .st16 {
        fill: url(#linear-gradient);
      }
    </style>
    <linearGradient id="linear-gradient" x1="55.93" y1="55.93" x2="968.07" y2="968.07" gradientUnits="userSpaceOnUse">
      <stop offset="0" stop-color="#1d2837"/>
      <stop offset="1" stop-color="#243247"/>
    </linearGradient>
    <clipPath id="clippath">
      <rect class="st4" x="12" y="12" width="1000" height="1000" rx="150" ry="150"/>
    </clipPath>
    <clipPath id="clippath-1">
      <rect class="st4" x="22" y="22" width="980" height="980" rx="140" ry="140"/>
    </clipPath>
    <clipPath id="clippath-2">
      <rect class="st4" x="22" y="22" width="980" height="980" rx="140" ry="140"/>
    </clipPath>
    <radialGradient id="radial-gradient" cx="512" cy="512" fx="512" fy="512" r="446.66" gradientUnits="userSpaceOnUse">
      <stop offset=".32" stop-color="#754ea0"/>
      <stop offset=".53" stop-color="#7352a2"/>
      <stop offset=".74" stop-color="#6f5eaa"/>
      <stop offset=".96" stop-color="#6972b6"/>
      <stop offset="1" stop-color="#6878ba"/>
    </radialGradient>
    <linearGradient id="linear-gradient1" x1="913.83" y1="913.83" x2="110.17" y2="110.17" gradientUnits="userSpaceOnUse">
      <stop offset="0" stop-color="#7455a3"/>
      <stop offset=".56" stop-color="#6e65ad"/>
      <stop offset=".78" stop-color="#6c6eb3"/>
      <stop offset="1" stop-color="#725da8"/>
    </linearGradient>
    <radialGradient id="radial-gradient1" cx="292.69" cy="292.69" fx="292.69" fy="292.69" r="190.74" gradientUnits="userSpaceOnUse">
      <stop offset="0" stop-color="#6878ba"/>
      <stop offset="1" stop-color="#754ea0"/>
    </radialGradient>
    <radialGradient id="radial-gradient2" cx="512" cy="192.4" fx="512" fy="192.4" r="99.37" xlink:href="#radial-gradient1"/>
    <radialGradient id="radial-gradient3" cx="731.31" cy="292.69" fx="731.31" fy="292.69" xlink:href="#radial-gradient1"/>
    <radialGradient id="radial-gradient4" cy="731.31" fy="731.31" r="190.74" xlink:href="#radial-gradient1"/>
    <radialGradient id="radial-gradient5" cx="731.31" cy="731.31" fx="731.31" fy="731.31" r="190.74" xlink:href="#radial-gradient1"/>
    <radialGradient id="radial-gradient6" cx="512" cy="831.6" fx="512" fy="831.6" r="99.37" xlink:href="#radial-gradient1"/>
    <radialGradient id="radial-gradient7" cx="831.6" cy="512" fx="831.6" fy="512" r="99.37" xlink:href="#radial-gradient1"/>
    <radialGradient id="radial-gradient8" cx="192.4" cy="512" fx="192.4" fy="512" r="99.37" xlink:href="#radial-gradient1"/>
  </defs>
  <g class="st9">
    <g id="Layer_2">
      <rect class="st16" x="12" y="12" width="1000" height="1000" rx="150" ry="150"/>
    </g>
    <g id="Layer_1">
      <path class="st0" d="M582.54,469.07c1.08,1.54,3.68,3.39,2.91,5.44l-91.38,92.77c-5.28-7.88-55.54-52.29-55.67-56.24-.09-2.69,16.6-19,17.97-18.85,2.64.29,32.23,33.56,39.05,35.96l69.07-70.6c4.31-4.07,15.56,7.96,18.05,11.52Z"/>
      <g class="st2">
        <polygon class="st1" points="339.2 211.04 294.2 101.95 403.29 146.95 483.43 355.26 274.28 274.28 355.26 483.43 146.95 403.29 101.95 294.21 211.03 339.21 110.17 110.18 339.2 211.04"/>
        <polygon class="st1" points="512 319.46 451.97 184.25 512 65.34 572.03 184.25 512 319.46"/>
        <polygon class="st1" points="684.8 211.04 729.8 101.95 620.71 146.95 540.57 355.26 749.72 274.28 668.74 483.43 877.05 403.29 922.05 294.21 812.97 339.21 913.83 110.18 684.8 211.04"/>
        <polygon class="st1" points="339.2 812.96 294.2 922.05 403.29 877.05 483.43 668.74 274.28 749.72 355.26 540.57 146.95 620.71 101.95 729.79 211.03 684.79 110.17 913.82 339.2 812.96"/>
        <polygon class="st1" points="684.8 812.96 729.8 922.05 620.71 877.05 540.57 668.74 749.72 749.72 668.74 540.57 877.05 620.71 922.05 729.79 812.97 684.79 913.83 913.82 684.8 812.96"/>
        <polygon class="st1" points="512 704.54 451.97 839.75 512 958.66 572.03 839.75 512 704.54"/>
        <polygon class="st1" points="958.66 512 823.46 572.03 704.54 512 823.46 451.97 958.66 512"/>
        <polygon class="st1" points="319.46 512 184.25 451.97 65.34 512 184.25 572.03 319.46 512"/>
      </g>
      <path class="st5" d="M339.2,211.04l-45-109.09,109.09,45,80.14,208.31-209.15-80.98,80.98,209.15-208.31-80.13-45-109.09,109.09,45L110.17,110.18l229.03,100.86ZM572.03,184.25l-60.03-118.91-60.03,118.91,60.03,135.21,60.03-135.21ZM684.8,211.04l45-109.09-109.09,45-80.14,208.31,209.15-80.98-80.98,209.15,208.31-80.13,45-109.09-109.09,45,100.87-229.03-229.03,100.86ZM339.2,812.96l-45,109.09,109.09-45,80.14-208.31-209.15,80.98,80.98-209.15-208.31,80.13-45,109.09,109.09-45-100.87,229.03,229.03-100.86ZM913.83,913.82l-100.87-229.03,109.09,45-45-109.09-208.31-80.13,80.98,209.15-209.15-80.98,80.14,208.31,109.09,45-45-109.09,229.03,100.86ZM512,704.54l-60.03,135.21,60.03,118.91,60.03-118.91-60.03-135.21ZM823.46,451.97l-118.91,60.03,118.91,60.03,135.21-60.03-135.21-60.03ZM319.46,512l-135.21-60.03-118.91,60.03,118.91,60.03,135.21-60.03Z"/>
      <path class="st3" d="M339.2,211.04l-45-109.09,109.09,45,80.14,208.31-209.15-80.98,80.98,209.15-208.31-80.13-45-109.09,109.09,45L110.17,110.18l229.03,100.86ZM572.03,184.25l-60.03-118.91-60.03,118.91,60.03,135.21,60.03-135.21ZM684.8,211.04l45-109.09-109.09,45-80.14,208.31,209.15-80.98-80.98,209.15,208.31-80.13,45-109.09-109.09,45,100.87-229.03-229.03,100.86ZM339.2,812.96l-45,109.09,109.09-45,80.14-208.31-209.15,80.98,80.98-209.15-208.31,80.13-45,109.09,109.09-45-100.87,229.03,229.03-100.86ZM913.83,913.82l-100.87-229.03,109.09,45-45-109.09-208.31-80.13,80.98,209.15-209.15-80.98,80.14,208.31,109.09,45-45-109.09,229.03,100.86ZM512,704.54l-60.03,135.21,60.03,118.91,60.03-118.91-60.03-135.21ZM823.46,451.97l-118.91,60.03,118.91,60.03,135.21-60.03-135.21-60.03ZM319.46,512l-135.21-60.03-118.91,60.03,118.91,60.03,135.21-60.03Z"/>
      <g class="st8">
        <polygon class="st7" points="339.2 211.04 294.2 101.95 403.29 146.95 483.43 355.26 274.28 274.28 355.26 483.43 146.95 403.29 101.95 294.21 211.03 339.21 110.17 110.18 339.2 211.04"/>
        <polygon class="st13" points="512 319.46 451.97 184.25 512 65.34 572.03 184.25 512 319.46"/>
        <polygon class="st15" points="684.8 211.04 729.8 101.95 620.71 146.95 540.57 355.26 749.72 274.28 668.74 483.43 877.05 403.29 922.05 294.21 812.97 339.21 913.83 110.18 684.8 211.04"/>
        <polygon class="st14" points="339.2 812.96 294.2 922.05 403.29 877.05 483.43 668.74 274.28 749.72 355.26 540.57 146.95 620.71 101.95 729.79 211.03 684.79 110.17 913.82 339.2 812.96"/>
        <polygon class="st6" points="684.8 812.96 729.8 922.05 620.71 877.05 540.57 668.74 749.72 749.72 668.74 540.57 877.05 620.71 922.05 729.79 812.97 684.79 913.83 913.82 684.8 812.96"/>
        <polygon class="st12" points="512 704.54 451.97 839.75 512 958.66 572.03 839.75 512 704.54"/>
        <polygon class="st10" points="958.66 512 823.46 572.03 704.54 512 823.46 451.97 958.66 512"/>
        <polygon class="st11" points="319.46 512 184.25 451.97 65.34 512 184.25 572.03 319.46 512"/>
      </g>
    </g>
  </g>
</svg>